<mxfile host="app.diagrams.net" modified="2023-11-28T12:39:15.249Z" agent="Mozilla/5.0 (Windows NT 10.0; Win64; x64) AppleWebKit/537.36 (KHTML, like Gecko) Chrome/119.0.0.0 Safari/537.36 Edg/119.0.0.0" etag="W4Y6JQhuHzB_uKWVil72" version="22.1.4" type="github">
  <diagram id="C5RBs43oDa-KdzZeNtuy" name="Page-1">
    <mxGraphModel dx="1015" dy="543" grid="1" gridSize="10" guides="1" tooltips="1" connect="1" arrows="1" fold="1" page="1" pageScale="1" pageWidth="827" pageHeight="1169" math="0" shadow="0">
      <root>
        <mxCell id="WIyWlLk6GJQsqaUBKTNV-0" />
        <mxCell id="WIyWlLk6GJQsqaUBKTNV-1" parent="WIyWlLk6GJQsqaUBKTNV-0" />
        <mxCell id="Ysmc3VU5PjxpqGOoZE2R-6" value="控制软件" style="rounded=0;whiteSpace=wrap;html=1;fillColor=#cdeb8b;strokeColor=#36393d;" vertex="1" parent="WIyWlLk6GJQsqaUBKTNV-1">
          <mxGeometry x="115.5" y="240" width="260" height="40" as="geometry" />
        </mxCell>
        <mxCell id="Ysmc3VU5PjxpqGOoZE2R-7" value="操作系统" style="rounded=0;whiteSpace=wrap;html=1;fillColor=#bac8d3;strokeColor=#23445d;" vertex="1" parent="WIyWlLk6GJQsqaUBKTNV-1">
          <mxGeometry x="115.5" y="298" width="260" height="40" as="geometry" />
        </mxCell>
        <mxCell id="Ysmc3VU5PjxpqGOoZE2R-8" value="硬件系统" style="rounded=0;whiteSpace=wrap;html=1;fillColor=#eeeeee;strokeColor=#36393d;" vertex="1" parent="WIyWlLk6GJQsqaUBKTNV-1">
          <mxGeometry x="115.5" y="358" width="260" height="40" as="geometry" />
        </mxCell>
        <mxCell id="Ysmc3VU5PjxpqGOoZE2R-9" value="&lt;font style=&quot;font-size: 19px;&quot;&gt;系统模型&lt;/font&gt;" style="text;html=1;align=center;verticalAlign=middle;resizable=0;points=[];autosize=1;strokeColor=none;fillColor=none;" vertex="1" parent="WIyWlLk6GJQsqaUBKTNV-1">
          <mxGeometry x="190.5" y="411" width="100" height="40" as="geometry" />
        </mxCell>
        <mxCell id="Ysmc3VU5PjxpqGOoZE2R-17" value="&lt;font style=&quot;font-size: 19px;&quot;&gt;实际模型&lt;/font&gt;" style="text;html=1;align=center;verticalAlign=middle;resizable=0;points=[];autosize=1;strokeColor=none;fillColor=none;" vertex="1" parent="WIyWlLk6GJQsqaUBKTNV-1">
          <mxGeometry x="530.5" y="411" width="100" height="40" as="geometry" />
        </mxCell>
        <mxCell id="Ysmc3VU5PjxpqGOoZE2R-22" value="编程环境" style="rounded=0;whiteSpace=wrap;html=1;fillColor=#b1ddf0;strokeColor=#10739e;" vertex="1" parent="WIyWlLk6GJQsqaUBKTNV-1">
          <mxGeometry x="115.5" y="180" width="260" height="40" as="geometry" />
        </mxCell>
        <mxCell id="Ysmc3VU5PjxpqGOoZE2R-24" value="客户端、网页端等" style="rounded=0;whiteSpace=wrap;html=1;fillColor=#cdeb8b;strokeColor=#36393d;" vertex="1" parent="WIyWlLk6GJQsqaUBKTNV-1">
          <mxGeometry x="450" y="240" width="260" height="40" as="geometry" />
        </mxCell>
        <mxCell id="Ysmc3VU5PjxpqGOoZE2R-25" value="MicroPython" style="rounded=0;whiteSpace=wrap;html=1;fillColor=#bac8d3;strokeColor=#23445d;" vertex="1" parent="WIyWlLk6GJQsqaUBKTNV-1">
          <mxGeometry x="450" y="298" width="260" height="40" as="geometry" />
        </mxCell>
        <mxCell id="Ysmc3VU5PjxpqGOoZE2R-26" value="机械、驱动、控制系统" style="rounded=0;whiteSpace=wrap;html=1;fillColor=#eeeeee;strokeColor=#36393d;" vertex="1" parent="WIyWlLk6GJQsqaUBKTNV-1">
          <mxGeometry x="450" y="358" width="260" height="40" as="geometry" />
        </mxCell>
        <mxCell id="Ysmc3VU5PjxpqGOoZE2R-27" value="CLion、Thonny等" style="rounded=0;whiteSpace=wrap;html=1;fillColor=#b1ddf0;strokeColor=#10739e;" vertex="1" parent="WIyWlLk6GJQsqaUBKTNV-1">
          <mxGeometry x="450" y="180" width="260" height="40" as="geometry" />
        </mxCell>
      </root>
    </mxGraphModel>
  </diagram>
</mxfile>
